PathFileType	4	(X/Y/Z)	C:/ViconProjects/foot_20160225/trc/2_test01_dynamic.trc
DataRate	CameraRate	NumFrames	NumMarkers	Units	OrigDataRate	OrigDataStartFrame	OrigNumFrames
120.000000	120.000000	6	39	mm	120.000000	86	682
Frame#	Time	RCUNE			RNAVI			RMT3			LCUNE			LNAVI			LMT3			ROHEL			RIHEL			LOHEL			LIHEL			RSHAN			LSHAN			RTHI			LTHI			ROWR			RELB			RBSH			LOWR			LELB			LBSH			RHEAD			THEAD			FHEAD			T10			RTOE			RHEL			RMT1			RMT5			RANK			RKNE			LTOE			LHEL			LMT1			LMT5			LANK			LKNE			VBWT			RFWT			LFWT			
		X0	Y0	Z0	X1	Y1	Z1	X2	Y2	Z2	X3	Y3	Z3	X4	Y4	Z4	X5	Y5	Z5	X6	Y6	Z6	X7	Y7	Z7	X8	Y8	Z8	X9	Y9	Z9	X10	Y10	Z10	X11	Y11	Z11	X12	Y12	Z12	X13	Y13	Z13	X14	Y14	Z14	X15	Y15	Z15	X16	Y16	Z16	X17	Y17	Z17	X18	Y18	Z18	X19	Y19	Z19	X20	Y20	Z20	X21	Y21	Z21	X22	Y22	Z22	X23	Y23	Z23	X24	Y24	Z24	X25	Y25	Z25	X26	Y26	Z26	X27	Y27	Z27	X28	Y28	Z28	X29	Y29	Z29	X30	Y30	Z30	X31	Y31	Z31	X32	Y32	Z32	X33	Y33	Z33	X34	Y34	Z34	X35	Y35	Z35	X36	Y36	Z36	X37	Y37	Z37	X38	Y38	Z38	
86	0.716667	2460.655762	330.779938	43.902420	2446.616211	230.865982	59.034962	2356.018799	304.773865	46.386902	2458.262451	-56.584270	41.232311	2434.281494	41.215359	52.722511	2352.122803	-43.704010	46.813919	2536.629639	302.030365	52.598980	2522.893799	228.409912	49.662010	2532.109131	-26.479820	53.503010	2519.422119	44.901691	49.941410	2430.712891	239.888443	237.054047	2412.313477	31.359989	331.173370	2329.644043	250.277237	577.010986	2315.242676	14.951740	628.286743	2299.343262	389.347351	872.210449	2416.226318	416.729034	1104.568604	2416.046875	323.275818	1433.914795	2316.425049	-132.740005	867.399170	2421.748535	-168.225433	1099.825073	2427.187500	-85.265961	1430.626831	2455.232910	186.432281	1666.236450	2365.746338	119.414436	1732.346313	2291.296387	37.432770	1647.758789	2570.632813	65.062881	1279.619019	2305.518555	285.259491	42.782051	2565.173584	257.366089	50.787270	2349.719482	267.539886	52.584080	2394.249756	348.423340	42.599171	2501.168457	318.491272	77.422363	2416.291260	302.747925	472.394653	2304.557617	-20.609619	40.629650	2556.538574	14.517850	52.369732	2340.209961	-4.995050	50.255630	2396.929932	-74.010658	45.154930	2495.696289	-45.098782	73.658783	2419.988525	-35.648190	474.805176	2570.196777	131.287018	952.685364	2342.493896	275.787781	961.538147	2346.181885	-14.481860	961.897278
87	0.725000	2460.720703	330.810883	43.854900	2446.643066	230.819229	59.002510	2356.016357	304.717438	46.303139	2458.288574	-56.633492	41.258671	2434.287109	41.230659	52.703960	2352.086670	-43.675072	46.741192	2536.666504	302.025208	52.634991	2522.801514	228.460999	49.563999	2532.109863	-26.460739	53.499611	2519.438965	44.861401	49.992168	2430.729492	239.826614	237.030502	2412.097900	31.344290	331.081238	2329.637939	250.248291	576.989380	2314.916504	15.024390	628.228821	2299.631104	389.424255	872.083801	2416.267578	416.737549	1104.450562	2415.995850	323.318054	1433.845825	2316.290771	-132.608643	867.250244	2421.416992	-168.013901	1099.569702	2427.067383	-85.319794	1430.448242	2455.894043	184.614471	1666.765625	2365.329346	119.386002	1732.391968	2289.783203	38.882339	1647.201050	2570.533203	65.011093	1279.571167	2305.527588	285.228943	42.715069	2565.138672	257.362701	50.801281	2349.717041	267.574188	52.533218	2394.284180	348.419891	42.512871	2501.235352	318.521240	77.507408	2416.309326	302.769318	472.388641	2304.628174	-20.907030	40.447948	2556.510254	14.572920	52.352421	2340.222900	-5.234060	50.200260	2396.836914	-74.005577	45.038410	2495.730957	-45.035721	73.650780	2419.928711	-35.646931	474.773865	2570.149658	131.310303	952.672546	2342.574951	275.764465	961.467224	2346.106934	-14.486300	961.867676
88	0.733333	2460.625488	330.834167	43.759430	2446.530518	230.939072	58.994228	2355.971680	304.812317	46.350971	2458.248779	-56.567711	41.204670	2434.048340	41.302448	52.674309	2352.069824	-43.674931	46.756222	2536.683838	302.015656	52.604980	2522.754883	228.451996	49.566662	2532.083984	-26.488180	53.531448	2519.412598	44.887260	49.964760	2430.737793	239.877014	237.029861	2412.002197	31.312660	330.980225	2329.619141	250.227036	576.886047	2314.974121	15.145510	628.176453	2299.280273	389.176208	871.862427	2416.256348	416.743805	1104.363647	2416.018311	323.335968	1433.779785	2316.322998	-132.413620	867.154968	2421.207764	-167.971146	1099.554565	2426.922119	-85.380959	1430.287842	2456.705078	182.896210	1667.285645	2365.474609	119.493317	1732.396973	2287.503906	41.544552	1646.230835	2570.492432	65.003189	1279.541260	2305.409912	285.323425	42.655788	2565.142334	257.335938	50.779381	2349.667969	267.583954	52.501678	2394.261963	348.447113	42.525410	2501.222900	318.472198	77.481056	2416.267578	302.743103	472.347504	2304.585938	-20.873989	40.427021	2556.501953	14.595520	52.325790	2340.259766	-5.204990	50.131008	2396.809082	-74.046989	45.030441	2495.714111	-44.996910	73.605843	2419.910400	-35.685120	474.806641	2570.096191	131.346664	952.700806	2342.310547	275.856873	961.462463	2346.129150	-14.483870	961.795654
89	0.741667	2460.535156	330.725952	43.809849	2446.497070	230.863586	59.016541	2355.998047	304.780579	46.324379	2458.291504	-56.612881	41.229382	2434.283936	41.247921	52.686760	2352.108887	-43.740131	46.838379	2536.656982	302.003876	52.612801	2522.761963	228.474762	49.535992	2532.111084	-26.476740	53.517399	2519.389648	44.916279	49.956081	2430.593262	239.840302	237.065414	2411.895020	31.300650	331.150024	2329.567627	250.263611	576.954346	2314.889160	15.038070	628.076294	2299.663574	389.385529	871.825317	2416.196533	416.700958	1104.304199	2416.022705	323.113251	1433.714722	2316.241455	-132.316193	867.052856	2421.052002	-167.949829	1099.417236	2426.806396	-85.564377	1430.137695	2457.752686	180.878220	1667.944580	2364.109863	119.231407	1732.306641	2285.961182	43.143341	1645.578003	2570.432129	64.975128	1279.489990	2305.423096	285.269623	42.642200	2565.153564	257.333344	50.819672	2349.668701	267.641815	52.525131	2394.179688	348.391571	42.551899	2501.224365	318.472382	77.481178	2416.261475	302.725464	472.331879	2304.611816	-20.901939	40.412258	2556.525879	14.553750	52.382641	2340.227051	-5.225630	50.075939	2396.849121	-74.032608	44.999790	2495.696533	-45.071781	73.647186	2419.899414	-35.655479	474.831390	2570.049316	131.343155	952.679077	2342.220703	275.877472	961.507935	2346.098389	-14.488490	961.769531
90	0.750000	2460.581055	330.731110	43.775131	2446.420654	230.842438	59.012611	2355.956055	304.803375	46.317860	2458.270264	-56.593090	41.215271	2434.116943	41.363129	52.616360	2352.050293	-43.701050	46.748451	2536.667236	301.980194	52.646320	2522.739014	228.384842	49.539261	2532.091797	-26.470650	53.507160	2519.322266	44.878250	49.843479	2430.662598	239.799622	237.056702	2412.040039	31.347521	331.130798	2329.528076	250.225113	576.805969	2314.948486	15.066060	628.127502	2299.581787	389.317780	871.667664	2416.179443	416.669952	1104.257202	2416.069580	323.357666	1433.617798	2316.043701	-132.220047	866.903320	2420.948975	-167.916031	1099.170898	2426.720215	-85.883347	1429.815552	2458.849365	178.987473	1668.402710	2363.690430	119.187668	1732.338135	2284.124268	45.673721	1644.905273	2570.380859	64.941597	1279.436768	2305.467285	285.246979	42.661259	2565.137695	257.311035	50.827869	2349.697754	267.568695	52.526630	2394.259521	348.411682	42.496601	2503.268555	320.614868	79.302673	2416.242920	302.787140	472.379791	2304.604248	-20.839390	40.409969	2556.508789	14.600120	52.387821	2340.258789	-5.224460	50.111820	2396.830078	-74.054443	44.964661	2495.772461	-45.033859	73.704712	2419.895752	-35.666229	474.826202	2569.982422	131.369278	952.670410	2342.097168	275.877197	961.471863	2346.059570	-14.493040	961.744873
91	0.758333	2460.602783	330.814941	43.863220	2446.499756	230.867966	58.985062	2355.948242	304.827240	46.320629	2458.205078	-56.487431	41.172771	2434.104980	41.342621	52.611240	2352.142822	-43.695499	46.765911	2536.628174	301.987915	52.615829	2522.724365	228.393036	49.557819	2532.092773	-26.464090	53.521721	2519.270996	44.894630	49.822269	2430.719971	239.754517	237.022995	2411.955322	31.223730	331.010590	2329.414795	250.331741	576.807190	2314.805420	15.072830	628.085205	2299.485352	389.263275	871.551086	2416.144775	416.691284	1104.246582	2416.115234	323.304535	1433.607300	2315.774170	-132.180679	866.724182	2420.819336	-167.753311	1098.860840	2426.558105	-85.825951	1429.638428	2459.783203	177.235794	1668.855347	2363.367920	119.067848	1732.260742	2282.068115	47.634460	1644.379272	2570.347168	64.921318	1279.395264	2305.415039	285.233368	42.651749	2565.133789	257.300812	50.798672	2349.713135	267.647736	52.500462	2394.264404	348.423981	42.567322	2501.327881	318.573853	77.660011	2416.226563	302.714203	472.311066	2304.523438	-20.883110	40.368832	2556.479248	14.692280	52.371510	2340.181641	-5.176000	49.942810	2396.827393	-74.066673	44.925419	2495.793213	-44.968048	73.735931	2419.914307	-35.677738	474.789673	2569.871094	131.435989	952.710327	2342.201172	275.815216	961.429810	2345.963135	-14.507480	961.722534
